<svg xmlns="http://www.w3.org/2000/svg" viewBox="0 0 180 53.09"><defs><style>.cls-1,.cls-7{fill:#077aac;}.cls-2{fill:#0579d1;}.cls-3,.cls-4{fill:#0a3756;}.cls-4{font-size:37.78px;font-family:Montserrat-Bold, Montserrat;font-weight:700;}.cls-5{letter-spacing:-0.03em;}.cls-6{letter-spacing:0em;}.cls-7{font-size:17.83px;font-family:Montserrat-Medium, Montserrat;font-weight:500;}.cls-8{letter-spacing:-0.05em;}.cls-9{letter-spacing:-0.01em;}.cls-10{letter-spacing:0em;}.cls-11{letter-spacing:0em;}.cls-12{letter-spacing:0em;}</style></defs><title>Asset 2</title><g id="Layer_2" data-name="Layer 2"><g id="Layer_1-2" data-name="Layer 1"><path class="cls-1" d="M58.8,26c-.12,2.24,0,4.49,0,6.74,0,.47.08,1-.44,1.28s-.91-.1-1.29-.38c-2.08-1.55-1.55-1.5-3.61,0-.38.28-.74.67-1.28.38s-.42-.76-.42-1.21c0-1.27,0-2.56,0-3.84s0-2.57,0-3.85a1.22,1.22,0,0,1,.81-1.39c1.23-.42,1.51-1.25,1.48-2.5-.09-3.66,0-7.33,0-11,0-.65-.13-.8-.8-.62-8,2.16-16.08,4.28-24.12,6.42a2.44,2.44,0,0,1-1.34,0L1,8.94C.53,8.81,0,8.69,0,8s.56-.76,1.05-.9q13.2-3.49,26.37-7a3.34,3.34,0,0,1,1.8,0l26.29,7c1.13.3,1.09.34,1.05,1.55-.07,1.91,0,3.84,0,5.76,0,2.54,0,5.08,0,7.62,0,.58.12,1,.69,1.19A2.32,2.32,0,0,1,58.8,26Z"/><path class="cls-2" d="M34.43,53.09h0Z"/><path class="cls-3" d="M49.31,25.86a1.05,1.05,0,0,1-1,1.21c-4.55.78-9.08,1.73-13.65,2.47V51.45a1.2,1.2,0,0,0-.11.12l-.23-.15-.87-.52a75,75,0,0,0-11.55-7.4v-14L8.73,27.13c-1.31-.23-1.38-.3-1.38-1.6,0-3.82,0-7.64,0-11.45,0-.59.06-.81.76-.62,6.34,1.65,12.68,3.26,19,4.89a4.45,4.45,0,0,0,2.29,0l18.8-4.81c1.08-.27,1.08-.27,1.08.78V20C49.3,22,49.29,23.9,49.31,25.86Z"/><text class="cls-4" transform="translate(63.86 32.81)"><tspan class="cls-5">T</tspan><tspan x="22.33" y="0">a</tspan><tspan class="cls-6" x="45.64" y="0">a</tspan><tspan x="68.8" y="0">’ib</tspan></text><text class="cls-7" transform="translate(69.15 47.44)"><tspan class="cls-8">T</tspan><tspan x="9.49" y="0">e</tspan><tspan class="cls-9" x="20.4" y="0">c</tspan><tspan class="cls-10" x="30.46" y="0">h</tspan><tspan class="cls-11" x="42.6" y="0">n</tspan><tspan class="cls-12" x="54.8" y="0">ology</tspan></text></g></g></svg>